<svg id="Camada_1" data-name="Camada 1" xmlns="http://www.w3.org/2000/svg" viewBox="0 0 841.89 595.28"><defs><style>.cls-1{fill:#fff;}.cls-2{fill:#77c6c6;}</style></defs><path class="cls-1" d="M421,146.25a103.44,103.44,0,0,1,54.11,15.17l-22.54,7.64,3,8.94,30.08-10.19a5.54,5.54,0,0,0,1.45-9.76,113.46,113.46,0,0,0-173.9,56.78l9.06,2.72A104,104,0,0,1,421,146.25"/><path class="cls-1" d="M511.88,182.45l-7.55,5.66a104,104,0,0,1-70.59,165.23l18.78-18.79-6.68-6.68L419.6,354.1a5.54,5.54,0,0,0,4.09,9.46,115.65,115.65,0,0,0,53.77-15.06l-5,16.48a26,26,0,0,1-24.9,18.43h-54.1A26,26,0,0,1,368.53,365l-5.25-17.16-4.35-14.22-.14-.48-.34.11a103.8,103.8,0,0,1-41.17-75.5l19.6,12.52,5.09-7.95L317.08,246.4l-4.44-2.83h-4.88q-.19,3.28-.2,6.61c0,.46,0,.91,0,1.36a113.13,113.13,0,0,0,43.19,87.71l9.76,31.92a30.65,30.65,0,0,0,29.31,21.69H451.1a30.66,30.66,0,0,0,29.31-21.69l9.46-31h0a113.38,113.38,0,0,0,22-157.75"/><rect class="cls-2" x="383.46" y="197.26" width="10.39" height="10.39"/><rect class="cls-2" x="362.68" y="218.21" width="10.39" height="10.39"/><rect class="cls-2" x="362.68" y="239.79" width="10.39" height="10.39"/><rect class="cls-2" x="426.61" y="218.21" width="10.39" height="10.39"/><rect class="cls-2" x="426.61" y="239.79" width="10.39" height="10.39"/><rect class="cls-2" x="448.19" y="218.21" width="10.39" height="10.39"/><rect class="cls-2" x="448.19" y="239.79" width="10.39" height="10.39"/><rect class="cls-2" x="469.76" y="218.21" width="10.39" height="10.39"/><rect class="cls-2" x="469.76" y="239.79" width="10.39" height="10.39"/><path class="cls-2" d="M383.46,250.18h32v-32h-32Zm21.19-10.79H394.26V229h10.39Z"/><rect class="cls-2" x="405.04" y="197.26" width="10.39" height="10.39"/><rect class="cls-2" x="426.61" y="197.26" width="10.39" height="10.39"/><rect class="cls-2" x="448.19" y="197.26" width="10.39" height="10.39"/><rect class="cls-2" x="448.98" y="303.18" width="10.39" height="10.39"/><rect class="cls-2" x="469.77" y="282.23" width="10.39" height="10.39"/><rect class="cls-2" x="469.77" y="260.66" width="10.39" height="10.39"/><rect class="cls-2" x="405.83" y="282.23" width="10.39" height="10.39"/><rect class="cls-2" x="405.83" y="260.66" width="10.39" height="10.39"/><rect class="cls-2" x="384.25" y="282.23" width="10.39" height="10.39"/><rect class="cls-2" x="384.25" y="260.66" width="10.39" height="10.39"/><rect class="cls-2" x="362.68" y="282.23" width="10.39" height="10.39"/><rect class="cls-2" x="362.68" y="260.66" width="10.39" height="10.39"/><path class="cls-2" d="M427.4,292.63h32v-32h-32Zm21.19-10.79h-10.4v-10.4h10.4Z"/><rect class="cls-2" x="427.4" y="303.18" width="10.39" height="10.39"/><rect class="cls-2" x="405.83" y="303.18" width="10.39" height="10.39"/><rect class="cls-2" x="384.25" y="303.18" width="10.39" height="10.39"/><path class="cls-1" d="M378.43,415v14.23A6.56,6.56,0,0,0,385,435.8H401.1v16.12a6.56,6.56,0,0,0,6.56,6.56h27.51a6.56,6.56,0,0,0,6.56-6.56V435.8H456.9a6.57,6.57,0,0,0,6.57-6.56V405.56h-85Zm53.85,34H410.55V435.8h21.73ZM454,426.35H387.88V415H454Z"/></svg>